<svg width="18" height="20" viewBox="0 0 18 20" fill="none" xmlns="http://www.w3.org/2000/svg">
<path d="M6 0.00585938C6.55228 0.00585938 7 0.453575 7 1.00586V2.00586H11V1.00586C11 0.453575 11.4477 0.00585938 12 0.00585938C12.5523 0.00585938 13 0.453575 13 1.00586V2.00586H16C17.1046 2.00586 18 2.90129 18 4.00586V17.0059C18 18.1104 17.1046 19.0059 16 19.0059H2C0.895431 19.0059 0 18.1104 0 17.0059V4.00586C0 2.90129 0.895431 2.00586 2 2.00586H5V1.00586C5 0.453575 5.44772 0.00585938 6 0.00585938ZM5 4.00586H2V7.00586H16V4.00586H13V5.00586C13 5.55814 12.5523 6.00586 12 6.00586C11.4477 6.00586 11 5.55814 11 5.00586V4.00586H7V5.00586C7 5.55814 6.55228 6.00586 6 6.00586C5.44772 6.00586 5 5.55814 5 5.00586V4.00586ZM16 9.00586H2V17.0059H16V9.00586Z" fill="white"/>
</svg>
