<svg width="18" height="21" viewBox="0 0 18 21" fill="none" xmlns="http://www.w3.org/2000/svg">
<path d="M13 18.0059H5C4.20435 18.0059 3.44129 17.6898 2.87868 17.1272C2.31607 16.5646 2 15.8015 2 15.0059V5.00586C2 4.74064 1.89464 4.48629 1.70711 4.29875C1.51957 4.11122 1.26522 4.00586 1 4.00586C0.734784 4.00586 0.48043 4.11122 0.292893 4.29875C0.105357 4.48629 0 4.74064 0 5.00586V15.0059C0 16.3319 0.526784 17.6037 1.46447 18.5414C2.40215 19.4791 3.67392 20.0059 5 20.0059H13C13.2652 20.0059 13.5196 19.9005 13.7071 19.713C13.8946 19.5254 14 19.2711 14 19.0059C14 18.7406 13.8946 18.4863 13.7071 18.2988C13.5196 18.1112 13.2652 18.0059 13 18.0059ZM7 11.0059C7 11.2711 7.10536 11.5254 7.29289 11.713C7.48043 11.9005 7.73478 12.0059 8 12.0059H13C13.2652 12.0059 13.5196 11.9005 13.7071 11.713C13.8946 11.5254 14 11.2711 14 11.0059C14 10.7406 13.8946 10.4863 13.7071 10.2988C13.5196 10.1112 13.2652 10.0059 13 10.0059H8C7.73478 10.0059 7.48043 10.1112 7.29289 10.2988C7.10536 10.4863 7 10.7406 7 11.0059ZM18 6.94586C17.9896 6.85399 17.9695 6.76349 17.94 6.67586V6.58586C17.8919 6.48304 17.8278 6.38852 17.75 6.30586V6.30586L11.75 0.305859C11.6673 0.228076 11.5728 0.16394 11.47 0.115859C11.4402 0.111619 11.4099 0.111619 11.38 0.115859C11.2784 0.0576006 11.1662 0.0202036 11.05 0.00585938H7C6.20435 0.00585938 5.44129 0.32193 4.87868 0.884539C4.31607 1.44715 4 2.21021 4 3.00586V13.0059C4 13.8015 4.31607 14.5646 4.87868 15.1272C5.44129 15.6898 6.20435 16.0059 7 16.0059H15C15.7956 16.0059 16.5587 15.6898 17.1213 15.1272C17.6839 14.5646 18 13.8015 18 13.0059V7.00586C18 7.00586 18 7.00586 18 6.94586ZM12 3.41586L14.59 6.00586H13C12.7348 6.00586 12.4804 5.9005 12.2929 5.71297C12.1054 5.52543 12 5.27108 12 5.00586V3.41586ZM16 13.0059C16 13.2711 15.8946 13.5254 15.7071 13.713C15.5196 13.9005 15.2652 14.0059 15 14.0059H7C6.73478 14.0059 6.48043 13.9005 6.29289 13.713C6.10536 13.5254 6 13.2711 6 13.0059V3.00586C6 2.74064 6.10536 2.48629 6.29289 2.29875C6.48043 2.11122 6.73478 2.00586 7 2.00586H10V5.00586C10.0027 5.347 10.0636 5.68519 10.18 6.00586H8C7.73478 6.00586 7.48043 6.11122 7.29289 6.29875C7.10536 6.48629 7 6.74064 7 7.00586C7 7.27108 7.10536 7.52543 7.29289 7.71297C7.48043 7.9005 7.73478 8.00586 8 8.00586H16V13.0059Z" fill="white"/>
</svg>
