<svg width="15" height="15" viewBox="0 0 15 15" fill="none" xmlns="http://www.w3.org/2000/svg">
<path d="M3.75 6C3.60166 6 3.45666 6.04399 3.33332 6.1264C3.20999 6.20881 3.11386 6.32594 3.05709 6.46299C3.00032 6.60003 2.98547 6.75083 3.01441 6.89632C3.04335 7.0418 3.11478 7.17544 3.21967 7.28033C3.32456 7.38522 3.4582 7.45665 3.60368 7.48559C3.74917 7.51453 3.89997 7.49968 4.03701 7.44291C4.17406 7.38614 4.29119 7.29001 4.3736 7.16668C4.45601 7.04334 4.5 6.89834 4.5 6.75C4.5 6.55109 4.42098 6.36032 4.28033 6.21967C4.13968 6.07902 3.94891 6 3.75 6ZM12.75 3H12V0.75C12 0.551088 11.921 0.360322 11.7803 0.21967C11.6397 0.0790176 11.4489 0 11.25 0H3.75C3.55109 0 3.36032 0.0790176 3.21967 0.21967C3.07902 0.360322 3 0.551088 3 0.75V3H2.25C1.65326 3 1.08097 3.23705 0.65901 3.65901C0.237053 4.08097 0 4.65326 0 5.25V9.75C0 10.3467 0.237053 10.919 0.65901 11.341C1.08097 11.7629 1.65326 12 2.25 12H3V14.25C3 14.4489 3.07902 14.6397 3.21967 14.7803C3.36032 14.921 3.55109 15 3.75 15H11.25C11.4489 15 11.6397 14.921 11.7803 14.7803C11.921 14.6397 12 14.4489 12 14.25V12H12.75C13.3467 12 13.919 11.7629 14.341 11.341C14.7629 10.919 15 10.3467 15 9.75V5.25C15 4.65326 14.7629 4.08097 14.341 3.65901C13.919 3.23705 13.3467 3 12.75 3ZM4.5 1.5H10.5V3H4.5V1.5ZM10.5 13.5H4.5V10.5H10.5V13.5ZM13.5 9.75C13.5 9.94891 13.421 10.1397 13.2803 10.2803C13.1397 10.421 12.9489 10.5 12.75 10.5H12V9.75C12 9.55109 11.921 9.36032 11.7803 9.21967C11.6397 9.07902 11.4489 9 11.25 9H3.75C3.55109 9 3.36032 9.07902 3.21967 9.21967C3.07902 9.36032 3 9.55109 3 9.75V10.5H2.25C2.05109 10.5 1.86032 10.421 1.71967 10.2803C1.57902 10.1397 1.5 9.94891 1.5 9.75V5.25C1.5 5.05109 1.57902 4.86032 1.71967 4.71967C1.86032 4.57902 2.05109 4.5 2.25 4.5H12.75C12.9489 4.5 13.1397 4.57902 13.2803 4.71967C13.421 4.86032 13.5 5.05109 13.5 5.25V9.75Z" fill="white"/>
</svg>
