<svg width="19" height="21" viewBox="0 0 19 21" fill="none" xmlns="http://www.w3.org/2000/svg">
<path d="M11 10H5C4.73478 10 4.48043 10.1054 4.29289 10.2929C4.10536 10.4804 4 10.7348 4 11C4 11.2652 4.10536 11.5196 4.29289 11.7071C4.48043 11.8946 4.73478 12 5 12H11C11.2652 12 11.5196 11.8946 11.7071 11.7071C11.8946 11.5196 12 11.2652 12 11C12 10.7348 11.8946 10.4804 11.7071 10.2929C11.5196 10.1054 11.2652 10 11 10ZM16.41 17L17.71 15.71C17.8983 15.5217 18.0041 15.2663 18.0041 15C18.0041 14.7337 17.8983 14.4783 17.71 14.29C17.5217 14.1017 17.2663 13.9959 17 13.9959C16.7337 13.9959 16.4783 14.1017 16.29 14.29L15 15.59L13.71 14.29C13.5217 14.1017 13.2663 13.9959 13 13.9959C12.7337 13.9959 12.4783 14.1017 12.29 14.29C12.1017 14.4783 11.9959 14.7337 11.9959 15C11.9959 15.2663 12.1017 15.5217 12.29 15.71L13.59 17L12.29 18.29C12.1963 18.383 12.1219 18.4936 12.0711 18.6154C12.0203 18.7373 11.9942 18.868 11.9942 19C11.9942 19.132 12.0203 19.2627 12.0711 19.3846C12.1219 19.5064 12.1963 19.617 12.29 19.71C12.383 19.8037 12.4936 19.8781 12.6154 19.9289C12.7373 19.9797 12.868 20.0058 13 20.0058C13.132 20.0058 13.2627 19.9797 13.3846 19.9289C13.5064 19.8781 13.617 19.8037 13.71 19.71L15 18.41L16.29 19.71C16.383 19.8037 16.4936 19.8781 16.6154 19.9289C16.7373 19.9797 16.868 20.0058 17 20.0058C17.132 20.0058 17.2627 19.9797 17.3846 19.9289C17.5064 19.8781 17.617 19.8037 17.71 19.71C17.8037 19.617 17.8781 19.5064 17.9289 19.3846C17.9797 19.2627 18.0058 19.132 18.0058 19C18.0058 18.868 17.9797 18.7373 17.9289 18.6154C17.8781 18.4936 17.8037 18.383 17.71 18.29L16.41 17ZM9 18H3C2.73478 18 2.48043 17.8946 2.29289 17.7071C2.10536 17.5196 2 17.2652 2 17V3C2 2.73478 2.10536 2.48043 2.29289 2.29289C2.48043 2.10536 2.73478 2 3 2H8V5C8 5.79565 8.31607 6.55871 8.87868 7.12132C9.44129 7.68393 10.2044 8 11 8H14V11C14 11.2652 14.1054 11.5196 14.2929 11.7071C14.4804 11.8946 14.7348 12 15 12C15.2652 12 15.5196 11.8946 15.7071 11.7071C15.8946 11.5196 16 11.2652 16 11V7C16 7 16 7 16 6.94C15.9896 6.84813 15.9695 6.75763 15.94 6.67V6.58C15.8919 6.47718 15.8278 6.38267 15.75 6.3L9.75 0.3C9.66734 0.222216 9.57282 0.158081 9.47 0.11C9.43692 0.104209 9.40308 0.104209 9.37 0.11C9.27276 0.058003 9.16826 0.020922 9.06 0H3C2.20435 0 1.44129 0.316071 0.87868 0.87868C0.316071 1.44129 0 2.20435 0 3V17C0 17.7956 0.316071 18.5587 0.87868 19.1213C1.44129 19.6839 2.20435 20 3 20H9C9.26522 20 9.51957 19.8946 9.70711 19.7071C9.89464 19.5196 10 19.2652 10 19C10 18.7348 9.89464 18.4804 9.70711 18.2929C9.51957 18.1054 9.26522 18 9 18ZM10 3.41L12.59 6H11C10.7348 6 10.4804 5.89464 10.2929 5.70711C10.1054 5.51957 10 5.26522 10 5V3.41ZM5 6C4.73478 6 4.48043 6.10536 4.29289 6.29289C4.10536 6.48043 4 6.73478 4 7C4 7.26522 4.10536 7.51957 4.29289 7.70711C4.48043 7.89464 4.73478 8 5 8H6C6.26522 8 6.51957 7.89464 6.70711 7.70711C6.89464 7.51957 7 7.26522 7 7C7 6.73478 6.89464 6.48043 6.70711 6.29289C6.51957 6.10536 6.26522 6 6 6H5ZM9 14H5C4.73478 14 4.48043 14.1054 4.29289 14.2929C4.10536 14.4804 4 14.7348 4 15C4 15.2652 4.10536 15.5196 4.29289 15.7071C4.48043 15.8946 4.73478 16 5 16H9C9.26522 16 9.51957 15.8946 9.70711 15.7071C9.89464 15.5196 10 15.2652 10 15C10 14.7348 9.89464 14.4804 9.70711 14.2929C9.51957 14.1054 9.26522 14 9 14Z" fill="white"/>
</svg>
