<svg width="20" height="21" viewBox="0 0 20 21" fill="none" xmlns="http://www.w3.org/2000/svg">
<path d="M9 18H3C2.73478 18 2.48043 17.8946 2.29289 17.7071C2.10536 17.5196 2 17.2652 2 17V3C2 2.73478 2.10536 2.48043 2.29289 2.29289C2.48043 2.10536 2.73478 2 3 2H8V5C8 5.79565 8.31607 6.55871 8.87868 7.12132C9.44129 7.68393 10.2044 8 11 8H14V13C14 13.2652 14.1054 13.5196 14.2929 13.7071C14.4804 13.8946 14.7348 14 15 14C15.2652 14 15.5196 13.8946 15.7071 13.7071C15.8946 13.5196 16 13.2652 16 13V7C16 7 16 7 16 6.94C15.9896 6.84813 15.9695 6.75763 15.94 6.67V6.58C15.8919 6.47718 15.8278 6.38267 15.75 6.3V6.3L9.75 0.3C9.66734 0.222216 9.57282 0.158081 9.47 0.11C9.43692 0.104209 9.40308 0.104209 9.37 0.11C9.27276 0.058003 9.16826 0.020922 9.06 0H3C2.20435 0 1.44129 0.316071 0.87868 0.87868C0.316071 1.44129 0 2.20435 0 3V17C0 17.7956 0.316071 18.5587 0.87868 19.1213C1.44129 19.6839 2.20435 20 3 20H9C9.26522 20 9.51957 19.8946 9.70711 19.7071C9.89464 19.5196 10 19.2652 10 19C10 18.7348 9.89464 18.4804 9.70711 18.2929C9.51957 18.1054 9.26522 18 9 18ZM10 3.41L12.59 6H11C10.7348 6 10.4804 5.89464 10.2929 5.70711C10.1054 5.51957 10 5.26522 10 5V3.41ZM5 12H11C11.2652 12 11.5196 11.8946 11.7071 11.7071C11.8946 11.5196 12 11.2652 12 11C12 10.7348 11.8946 10.4804 11.7071 10.2929C11.5196 10.1054 11.2652 10 11 10H5C4.73478 10 4.48043 10.1054 4.29289 10.2929C4.10536 10.4804 4 10.7348 4 11C4 11.2652 4.10536 11.5196 4.29289 11.7071C4.48043 11.8946 4.73478 12 5 12ZM9 14H5C4.73478 14 4.48043 14.1054 4.29289 14.2929C4.10536 14.4804 4 14.7348 4 15C4 15.2652 4.10536 15.5196 4.29289 15.7071C4.48043 15.8946 4.73478 16 5 16H9C9.26522 16 9.51957 15.8946 9.70711 15.7071C9.89464 15.5196 10 15.2652 10 15C10 14.7348 9.89464 14.4804 9.70711 14.2929C9.51957 14.1054 9.26522 14 9 14ZM5 8H6C6.26522 8 6.51957 7.89464 6.70711 7.70711C6.89464 7.51957 7 7.26522 7 7C7 6.73478 6.89464 6.48043 6.70711 6.29289C6.51957 6.10536 6.26522 6 6 6H5C4.73478 6 4.48043 6.10536 4.29289 6.29289C4.10536 6.48043 4 6.73478 4 7C4 7.26522 4.10536 7.51957 4.29289 7.70711C4.48043 7.89464 4.73478 8 5 8ZM18.71 14.29C18.617 14.1963 18.5064 14.1219 18.3846 14.0711C18.2627 14.0203 18.132 13.9942 18 13.9942C17.868 13.9942 17.7373 14.0203 17.6154 14.0711C17.4936 14.1219 17.383 14.1963 17.29 14.29L14 17.59L12.71 16.29C12.6168 16.1968 12.5061 16.1228 12.3842 16.0723C12.2624 16.0219 12.1319 15.9959 12 15.9959C11.8681 15.9959 11.7376 16.0219 11.6158 16.0723C11.4939 16.1228 11.3832 16.1968 11.29 16.29C11.1968 16.3832 11.1228 16.4939 11.0723 16.6158C11.0219 16.7376 10.9959 16.8681 10.9959 17C10.9959 17.1319 11.0219 17.2624 11.0723 17.3842C11.1228 17.5061 11.1968 17.6168 11.29 17.71L13.29 19.71C13.383 19.8037 13.4936 19.8781 13.6154 19.9289C13.7373 19.9797 13.868 20.0058 14 20.0058C14.132 20.0058 14.2627 19.9797 14.3846 19.9289C14.5064 19.8781 14.617 19.8037 14.71 19.71L18.71 15.71C18.8037 15.617 18.8781 15.5064 18.9289 15.3846C18.9797 15.2627 19.0058 15.132 19.0058 15C19.0058 14.868 18.9797 14.7373 18.9289 14.6154C18.8781 14.4936 18.8037 14.383 18.71 14.29V14.29Z" fill="white"/>
</svg>
