<svg width="15" height="15" viewBox="0 0 15 15" fill="none" xmlns="http://www.w3.org/2000/svg">
<path d="M14.25 9C14.0511 9 13.8603 9.07902 13.7197 9.21967C13.579 9.36032 13.5 9.55109 13.5 9.75V12.75C13.5 12.9489 13.421 13.1397 13.2803 13.2803C13.1397 13.421 12.9489 13.5 12.75 13.5H2.25C2.05109 13.5 1.86032 13.421 1.71967 13.2803C1.57902 13.1397 1.5 12.9489 1.5 12.75V9.75C1.5 9.55109 1.42098 9.36032 1.28033 9.21967C1.13968 9.07902 0.948912 9 0.75 9C0.551088 9 0.360322 9.07902 0.21967 9.21967C0.0790176 9.36032 0 9.55109 0 9.75V12.75C0 13.3467 0.237053 13.919 0.65901 14.341C1.08097 14.7629 1.65326 15 2.25 15H12.75C13.3467 15 13.919 14.7629 14.341 14.341C14.7629 13.919 15 13.3467 15 12.75V9.75C15 9.55109 14.921 9.36032 14.7803 9.21967C14.6397 9.07902 14.4489 9 14.25 9ZM6.9675 10.2825C7.03883 10.3508 7.12294 10.4043 7.215 10.44C7.30478 10.4797 7.40185 10.5002 7.5 10.5002C7.59815 10.5002 7.69522 10.4797 7.785 10.44C7.87706 10.4043 7.96117 10.3508 8.0325 10.2825L11.0325 7.2825C11.1737 7.14127 11.2531 6.94973 11.2531 6.75C11.2531 6.55027 11.1737 6.35873 11.0325 6.2175C10.8913 6.07627 10.6997 5.99693 10.5 5.99693C10.3003 5.99693 10.1087 6.07627 9.9675 6.2175L8.25 7.9425V0.75C8.25 0.551088 8.17098 0.360322 8.03033 0.21967C7.88968 0.0790176 7.69891 0 7.5 0C7.30109 0 7.11032 0.0790176 6.96967 0.21967C6.82902 0.360322 6.75 0.551088 6.75 0.75V7.9425L5.0325 6.2175C4.96257 6.14757 4.87955 6.0921 4.78819 6.05426C4.69682 6.01641 4.59889 5.99693 4.5 5.99693C4.40111 5.99693 4.30318 6.01641 4.21181 6.05426C4.12045 6.0921 4.03743 6.14757 3.9675 6.2175C3.89757 6.28743 3.8421 6.37045 3.80426 6.46181C3.76641 6.55318 3.74693 6.65111 3.74693 6.75C3.74693 6.84889 3.76641 6.94682 3.80426 7.03819C3.8421 7.12955 3.89757 7.21257 3.9675 7.2825L6.9675 10.2825Z" fill="white"/>
</svg>
