<svg width="16" height="21" viewBox="0 0 16 21" fill="none" xmlns="http://www.w3.org/2000/svg">
<path d="M5 8.00586H6C6.26522 8.00586 6.51957 7.9005 6.70711 7.71297C6.89464 7.52543 7 7.27108 7 7.00586C7 6.74064 6.89464 6.48629 6.70711 6.29875C6.51957 6.11122 6.26522 6.00586 6 6.00586H5C4.73478 6.00586 4.48043 6.11122 4.29289 6.29875C4.10536 6.48629 4 6.74064 4 7.00586C4 7.27108 4.10536 7.52543 4.29289 7.71297C4.48043 7.9005 4.73478 8.00586 5 8.00586V8.00586ZM5 10.0059C4.73478 10.0059 4.48043 10.1112 4.29289 10.2988C4.10536 10.4863 4 10.7406 4 11.0059C4 11.2711 4.10536 11.5254 4.29289 11.713C4.48043 11.9005 4.73478 12.0059 5 12.0059H11C11.2652 12.0059 11.5196 11.9005 11.7071 11.713C11.8946 11.5254 12 11.2711 12 11.0059C12 10.7406 11.8946 10.4863 11.7071 10.2988C11.5196 10.1112 11.2652 10.0059 11 10.0059H5ZM16 6.94586C15.9896 6.85399 15.9695 6.76349 15.94 6.67586V6.58586C15.8919 6.48304 15.8278 6.38852 15.75 6.30586V6.30586L9.75 0.305859C9.66734 0.228076 9.57282 0.16394 9.47 0.115859C9.44015 0.111619 9.40985 0.111619 9.38 0.115859C9.27841 0.0576006 9.16622 0.0202036 9.05 0.00585938H3C2.20435 0.00585938 1.44129 0.32193 0.87868 0.884539C0.316071 1.44715 0 2.21021 0 3.00586V17.0059C0 17.8015 0.316071 18.5646 0.87868 19.1272C1.44129 19.6898 2.20435 20.0059 3 20.0059H13C13.7956 20.0059 14.5587 19.6898 15.1213 19.1272C15.6839 18.5646 16 17.8015 16 17.0059V7.00586C16 7.00586 16 7.00586 16 6.94586ZM10 3.41586L12.59 6.00586H11C10.7348 6.00586 10.4804 5.9005 10.2929 5.71297C10.1054 5.52543 10 5.27108 10 5.00586V3.41586ZM14 17.0059C14 17.2711 13.8946 17.5254 13.7071 17.713C13.5196 17.9005 13.2652 18.0059 13 18.0059H3C2.73478 18.0059 2.48043 17.9005 2.29289 17.713C2.10536 17.5254 2 17.2711 2 17.0059V3.00586C2 2.74064 2.10536 2.48629 2.29289 2.29875C2.48043 2.11122 2.73478 2.00586 3 2.00586H8V5.00586C8 5.80151 8.31607 6.56457 8.87868 7.12718C9.44129 7.68979 10.2044 8.00586 11 8.00586H14V17.0059ZM11 14.0059H5C4.73478 14.0059 4.48043 14.1112 4.29289 14.2988C4.10536 14.4863 4 14.7406 4 15.0059C4 15.2711 4.10536 15.5254 4.29289 15.713C4.48043 15.9005 4.73478 16.0059 5 16.0059H11C11.2652 16.0059 11.5196 15.9005 11.7071 15.713C11.8946 15.5254 12 15.2711 12 15.0059C12 14.7406 11.8946 14.4863 11.7071 14.2988C11.5196 14.1112 11.2652 14.0059 11 14.0059Z" fill="white"/>
</svg>
