<svg width="15" height="13" viewBox="0 0 15 13" fill="none" xmlns="http://www.w3.org/2000/svg">
<path d="M14.9374 6.175C13.4229 2.36438 10.5739 0 7.5 0C4.42607 0 1.57706 2.36438 0.0625918 6.175C0.0213087 6.27751 0 6.38815 0 6.5C0 6.61185 0.0213087 6.72249 0.0625918 6.825C1.57706 10.6356 4.42607 13 7.5 13C10.5739 13 13.4229 10.6356 14.9374 6.825C14.9787 6.72249 15 6.61185 15 6.5C15 6.38815 14.9787 6.27751 14.9374 6.175ZM7.5 11.375C5.11583 11.375 2.87411 9.51437 1.57706 6.5C2.87411 3.48563 5.11583 1.625 7.5 1.625C9.88417 1.625 12.1259 3.48563 13.4229 6.5C12.1259 9.51437 9.88417 11.375 7.5 11.375ZM7.5 3.25C6.90686 3.25 6.32705 3.44061 5.83387 3.79772C5.34069 4.15484 4.95631 4.66242 4.72933 5.25628C4.50234 5.85014 4.44295 6.50361 4.55867 7.13404C4.67438 7.76448 4.96001 8.34358 5.37942 8.7981C5.79883 9.25262 6.33319 9.56215 6.91493 9.68755C7.49667 9.81295 8.09966 9.74859 8.64765 9.50261C9.19564 9.25662 9.66401 8.84006 9.99354 8.3056C10.3231 7.77114 10.499 7.14279 10.499 6.5C10.499 5.63805 10.183 4.8114 9.62058 4.2019C9.05817 3.59241 8.29537 3.25 7.5 3.25ZM7.5 8.125C7.20343 8.125 6.91352 8.0297 6.66694 7.85114C6.42035 7.67258 6.22816 7.41879 6.11466 7.12186C6.00117 6.82493 5.97148 6.4982 6.02933 6.18298C6.08719 5.86776 6.23 5.57821 6.43971 5.35095C6.64942 5.12369 6.9166 4.96892 7.20747 4.90622C7.49834 4.84352 7.79983 4.8757 8.07382 4.9987C8.34782 5.12169 8.58201 5.32997 8.74677 5.5972C8.91153 5.86443 8.99948 6.17861 8.99948 6.5C8.99948 6.93098 8.8415 7.3443 8.56029 7.64905C8.27908 7.95379 7.89769 8.125 7.5 8.125Z" fill="white"/>
</svg>
